<svg xmlns="http://www.w3.org/2000/svg" xmlns:xlink="http://www.w3.org/1999/xlink" width="500" zoomAndPan="magnify" viewBox="0 0 375 374.999991" height="500" preserveAspectRatio="xMidYMid meet" version="1.0"><defs><g/><clipPath id="2c9e485f64"><path d="M 15 181 L 369 181 L 369 276 L 15 276 Z M 15 181 " clip-rule="nonzero"/></clipPath><clipPath id="e01c9bf8c0"><path d="M 13.71875 187.753906 L 245.726562 14.421875 L 370.910156 181.980469 L 138.90625 355.316406 Z M 13.71875 187.753906 " clip-rule="nonzero"/></clipPath><clipPath id="730433e512"><path d="M 13.71875 187.753906 L 245.726562 14.421875 L 370.910156 181.980469 L 138.90625 355.316406 Z M 13.71875 187.753906 " clip-rule="nonzero"/></clipPath><clipPath id="e0cbaf3a9f"><path d="M 14 180 L 370 180 L 370 277 L 14 277 Z M 14 180 " clip-rule="nonzero"/></clipPath><clipPath id="d0fc60210f"><path d="M 13.71875 187.753906 L 245.726562 14.421875 L 370.910156 181.980469 L 138.90625 355.316406 Z M 13.71875 187.753906 " clip-rule="nonzero"/></clipPath><clipPath id="4f79aa6021"><path d="M 13.71875 187.753906 L 245.726562 14.421875 L 370.910156 181.980469 L 138.90625 355.316406 Z M 13.71875 187.753906 " clip-rule="nonzero"/></clipPath></defs><rect x="-37.5" width="450" fill="#ffffff" y="-37.499999" height="449.999989" fill-opacity="1"/><g clip-path="url(#2c9e485f64)"><g clip-path="url(#e01c9bf8c0)"><g clip-path="url(#730433e512)"><path fill="#b1d4e0" d="M 15.832031 188.070312 L 123.859375 275.253906 L 368.453125 181.855469 Z M 15.832031 188.070312 " fill-opacity="1" fill-rule="nonzero"/></g></g></g><g clip-path="url(#e0cbaf3a9f)"><g clip-path="url(#d0fc60210f)"><g clip-path="url(#4f79aa6021)"><path fill="#b1d4e0" d="M 369.285156 182.96875 C 369.195312 183.035156 369.0625 183.136719 368.9375 183.15625 L 124.347656 276.558594 C 123.878906 276.769531 123.378906 276.65625 122.992188 276.324219 L 14.960938 189.140625 C 14.496094 188.792969 14.304688 188.167969 14.507812 187.601562 C 14.710938 187.035156 15.199219 186.667969 15.800781 186.636719 L 368.421875 180.417969 C 369.101562 180.394531 369.667969 180.875 369.8125 181.535156 C 369.921875 182.144531 369.6875 182.667969 369.285156 182.96875 Z M 124.085938 273.695312 L 360.507812 183.410156 L 19.695312 189.425781 Z M 124.085938 273.695312 " fill-opacity="1" fill-rule="nonzero"/></g></g></g><g fill="#051d40" fill-opacity="1"><g transform="translate(30.995228, 192.049279)"><g><path d="M 47.234375 -14.953125 C 41.253906 -6.058594 37.726562 -1.226562 29.214844 -1.226562 L 14.800781 -1.226562 L 14.800781 -26.226562 L 25.535156 -26.226562 C 33.664062 -26.226562 35.964844 -24.15625 37.804688 -18.480469 L 37.804688 -35.195312 C 35.964844 -29.523438 33.664062 -27.453125 25.535156 -27.453125 L 14.800781 -27.453125 L 14.800781 -52.449219 L 27.683594 -52.449219 C 36.195312 -52.449219 39.335938 -48.617188 44.476562 -41.332031 L 44.78125 -41.484375 L 42.25 -53.675781 L 1.148438 -53.675781 L 1.148438 -53.292969 C 4.292969 -52.910156 6.976562 -52.066406 6.976562 -49.304688 L 6.976562 -5.90625 C 6.976562 -3.144531 4.292969 -1.535156 1.148438 -0.382812 L 1.148438 0 L 40.71875 0 L 43.324219 1.6875 L 43.785156 0 L 47.542969 -14.800781 Z M 47.234375 -14.953125 "/></g></g></g><g fill="#051d40" fill-opacity="1"><g transform="translate(78.151126, 192.049279)"><g><path d="M 65.484375 -53.292969 L 65.484375 -53.675781 L 51.835938 -53.675781 L 33.507812 -10.351562 L 11.808594 -53.675781 L 0.765625 -53.675781 C 4.0625 -51.222656 5.519531 -48.921875 6.976562 -46.007812 L 6.976562 -12.039062 C 6.976562 -1.609375 4.292969 -0.765625 1.148438 -0.382812 L 1.148438 0 L 14.339844 0 L 14.339844 -0.382812 C 11.195312 -0.765625 8.511719 -3.144531 8.511719 -13.574219 L 8.511719 -42.941406 L 30.441406 0.84375 L 51.835938 -49.691406 L 51.835938 -4.371094 C 51.835938 -1.609375 49.152344 -0.765625 46.007812 -0.382812 L 46.007812 0 L 65.484375 0 L 65.484375 -0.382812 C 62.34375 -0.765625 59.65625 -1.609375 59.65625 -4.371094 L 59.65625 -49.304688 C 59.65625 -52.066406 62.34375 -52.910156 65.484375 -53.292969 Z M 65.484375 -53.292969 "/></g></g></g><g fill="#051d40" fill-opacity="1"><g transform="translate(143.24936, 192.049279)"><g><path d="M 65.484375 -53.292969 L 65.484375 -53.675781 L 51.835938 -53.675781 L 33.507812 -10.351562 L 11.808594 -53.675781 L 0.765625 -53.675781 C 4.0625 -51.222656 5.519531 -48.921875 6.976562 -46.007812 L 6.976562 -12.039062 C 6.976562 -1.609375 4.292969 -0.765625 1.148438 -0.382812 L 1.148438 0 L 14.339844 0 L 14.339844 -0.382812 C 11.195312 -0.765625 8.511719 -3.144531 8.511719 -13.574219 L 8.511719 -42.941406 L 30.441406 0.84375 L 51.835938 -49.691406 L 51.835938 -4.371094 C 51.835938 -1.609375 49.152344 -0.765625 46.007812 -0.382812 L 46.007812 0 L 65.484375 0 L 65.484375 -0.382812 C 62.34375 -0.765625 59.65625 -1.609375 59.65625 -4.371094 L 59.65625 -49.304688 C 59.65625 -52.066406 62.34375 -52.910156 65.484375 -53.292969 Z M 65.484375 -53.292969 "/></g></g></g><g fill="#051d40" fill-opacity="1"><g transform="translate(208.347602, 192.049279)"><g><path d="M 65.484375 -53.292969 L 65.484375 -53.675781 L 51.835938 -53.675781 L 33.507812 -10.351562 L 11.808594 -53.675781 L 0.765625 -53.675781 C 4.0625 -51.222656 5.519531 -48.921875 6.976562 -46.007812 L 6.976562 -12.039062 C 6.976562 -1.609375 4.292969 -0.765625 1.148438 -0.382812 L 1.148438 0 L 14.339844 0 L 14.339844 -0.382812 C 11.195312 -0.765625 8.511719 -3.144531 8.511719 -13.574219 L 8.511719 -42.941406 L 30.441406 0.84375 L 51.835938 -49.691406 L 51.835938 -4.371094 C 51.835938 -1.609375 49.152344 -0.765625 46.007812 -0.382812 L 46.007812 0 L 65.484375 0 L 65.484375 -0.382812 C 62.34375 -0.765625 59.65625 -1.609375 59.65625 -4.371094 L 59.65625 -49.304688 C 59.65625 -52.066406 62.34375 -52.910156 65.484375 -53.292969 Z M 65.484375 -53.292969 "/></g></g></g><g fill="#051d40" fill-opacity="1"><g transform="translate(273.445844, 192.049279)"><g><path d="M 52.527344 -9.660156 L 36.347656 -50.53125 C 34.738281 -54.519531 34.660156 -55.132812 34.660156 -55.746094 L 27.527344 -51.070312 L 26.300781 -50.226562 L 26.453125 -48.539062 L 9.433594 -9.277344 C 6.59375 -2.683594 4.753906 -1.226562 1.535156 -0.308594 L 1.535156 0 L 15.644531 0 L 15.644531 -0.308594 C 11.347656 -1.226562 8.28125 -2.605469 11.117188 -9.203125 L 12.804688 -13.035156 L 42.789062 -13.035156 L 44.320312 -9.203125 C 47.003906 -2.453125 43.9375 -0.765625 38.570312 -0.308594 L 38.570312 0 L 60.117188 0 L 60.117188 -0.308594 C 56.667969 -0.765625 55.289062 -2.605469 52.527344 -9.660156 Z M 13.34375 -14.417969 L 28.371094 -49.074219 L 42.25 -14.417969 Z M 13.34375 -14.417969 "/></g></g></g></svg>